<?xml version="1.0" encoding="UTF-8"?>
<svg width="229px" height="21px" viewBox="0 0 229 21" version="1.1" xmlns="http://www.w3.org/2000/svg" xmlns:xlink="http://www.w3.org/1999/xlink">
    <!-- Generator: Sketch 51.2 (57519) - http://www.bohemiancoding.com/sketch -->
    <title>EET_2017_Logo_EETwebsiteFooter</title>
    <desc>Created with Sketch.</desc>
    <defs></defs>
    <g id="Mobile-Article" stroke="none" stroke-width="1" fill="none" fill-rule="evenodd">
        <g id="EET_2017_Logo_EETwebsiteFooter" fill="#000000" fill-rule="nonzero">
            <path d="M211.542379,19.1993055 C209.117988,19.1993055 207.400334,18.5999744 207.400334,16.3100567 L207.400334,9.41452601 L210.653049,9.41452601 C212.458346,9.41452601 212.104333,11.9467539 212.539116,11.9467539 L212.727293,11.9467539 L212.727293,6.20907094 L212.539116,6.20907094 C212.10777,6.20907094 212.35051,8.55226249 210.653049,8.55226249 L207.400334,8.55226249 L207.400334,1.35899954 C207.400334,1.35899954 210.215258,1.13516331 212.203147,1.45136958 C214.142918,1.7607018 213.617912,5.13156371 214.668353,5.13156371 L214.749123,5.13156371 C214.749123,5.13156371 214.75256,1.29799235 214.749123,0.794468245 C214.754708,0.322306985 214.317776,0.708972255 213.635097,0.8060682 C213.33135,0.942260302 203.984362,0.899727125 201.977569,0.794468245 C201.997332,0.965460218 202.107317,1.20648157 202.209138,1.27737021 C202.355642,1.39594756 204.511945,0.928512204 204.511945,3.43367354 L204.515382,16.9502025 C204.515382,19.4553639 201.965969,18.5832189 201.965969,19.3376458 C201.965969,19.3376458 201.963391,19.4850082 201.965969,19.6254966 C203.513919,19.3260458 214.414442,19.765985 215.022796,19.509497 C215.631579,19.2534387 216.417798,14.8016325 216.417798,14.8016325 L216.121355,14.8016325 C215.178751,14.8016325 215.448127,19.1993055 211.542379,19.1993055" id="Fill-1"></path>
            <path d="M169.310368,0.836958464 L169.310368,1.16003878 C169.310368,1.64508888 171.626923,0.901402674 171.626923,3.85380683 L171.626923,16.6760569 C171.626923,19.6404906 169.310368,18.8852045 169.310368,19.3698249 L169.310368,19.6929052 C169.310368,19.6929052 172.942874,19.4763727 176.708564,19.6929052 L176.708564,19.3698249 C176.708564,18.8852045 174.419076,19.6692757 174.419076,16.6760569 L174.392009,3.85380683 C174.392009,0.911284116 176.708564,1.64508888 176.708564,1.16003878 L176.708564,0.836958464 C172.880148,1.05263176 169.310368,0.836958464 169.310368,0.836958464" id="Fill-3"></path>
            <path d="M198.210246,16.293516 L197.885877,3.83473135 C197.885877,1.31797006 200.552579,1.52548042 200.579645,1.17533354 L200.579645,0.852253221 C200.579645,0.852253221 197.548619,0.98286016 195.455041,0.852253221 C195.292642,2.7782759 190.088127,15.8797842 190.088127,15.8797842 C190.088127,15.8797842 183.729202,1.31797006 183.705143,0.86127541 C181.174204,1.02668222 178.989115,0.841512519 178.989115,0.841512519 L178.989115,1.19208903 C178.989115,1.62300599 181.367966,1.34890328 181.392455,3.85879052 C181.431551,7.85132425 181.035005,13.083335 180.668532,16.4417377 C180.320963,19.6278595 178.177978,18.7496998 178.177978,19.370942 L178.177978,19.6785556 C178.177978,19.6785556 180.444695,19.52346 183.937142,19.6785556 L183.937142,19.370942 C183.937142,18.7496998 181.645506,19.5866153 181.625743,16.2131756 C181.60598,12.8693802 182.007682,6.54525492 182.260304,5.37022211 C182.834717,6.79787624 188.226979,18.0545615 188.535451,19.6003634 L189.344012,19.6003634 C189.383108,18.9872841 189.728099,17.6700444 190.696481,17.1648018 C190.595948,16.6230407 192.440341,11.0816978 195.224331,5.37022211 C195.224331,5.37022211 195.536241,13.0098686 195.437427,16.3167159 C195.346345,19.359342 193.132901,18.732085 193.132901,19.3537568 L193.136768,19.6665261 C193.136768,19.6665261 196.285512,19.5213118 200.889407,19.6609409 L200.889407,19.3537568 C200.889407,18.732085 198.210246,19.3537568 198.210246,16.293516" id="Fill-5"></path>
            <g id="Group-9" transform="translate(216.962180, 0.295198)">
                <path d="M7.97909562,8.90692044 C5.28575722,6.88637958 3.29185331,5.89007208 3.29185331,4.00443444 C3.29185331,1.70635385 4.71950741,0.699735255 6.28206472,0.699735255 C10.1641841,0.699735255 9.541653,4.02892324 10.0804066,4.02892324 L10.3497834,4.02892324 L10.3497834,1.06792652 C10.3497834,0.933452931 10.3227168,0.825616279 10.1611766,0.77191277 C9.08366945,0.394699317 7.54817871,0.2597961 6.38990138,0.2597961 C3.29185331,0.2597961 0.598514878,2.17250031 0.598514878,4.59689156 C0.598514878,7.53339949 2.37631587,8.77244685 3.83103655,9.74211745 C7.87168861,12.4088189 8.84135921,13.6482959 8.84135921,15.3990303 C8.84135921,17.9690655 7.24529091,19.3064977 5.33258669,19.3064977 C1.10332787,19.3064977 1.13726849,14.6446035 0.598514878,14.6446035 L0.329138072,14.6446035 L0.329138072,18.5232858 C0.329138072,18.7389591 3.40011959,19.7627627 5.12378744,19.7627627 C8.35630909,19.7627627 11.6429639,17.9849618 11.6429639,14.7790771 C11.6429639,12.5437222 10.8344039,11.0352979 7.97909562,8.90692044" id="Fill-7"></path>
            </g>
            <path d="M166.8953,0.766843158 C166.607449,0.955879515 163.400276,1.08047166 160.26442,1.09851604 C157.130283,1.08047166 153.928265,0.955449885 153.640844,0.766843158 C152.575796,0.0674086457 152.616611,0.67318424 152.616611,0.67318424 C152.616611,0.67318424 152.494167,4.9338059 152.391486,5.39178944 C152.558182,5.39007092 152.841736,5.39178944 152.841736,5.39178944 C153.407556,5.39178944 153.488326,1.66046956 156.900432,1.66046956 L158.781344,1.70815828 L158.790366,1.70815828 L158.790366,16.3352758 C158.790366,19.877989 156.473812,18.8404372 156.473812,19.3791908 L156.473812,19.7027008 C156.473812,19.7027008 160.27645,19.3864945 164.070925,19.7027008 C164.079947,19.4595313 164.070925,19.3791908 164.070925,19.3791908 C164.070925,18.8404372 161.7548,19.8762705 161.7548,16.3352758 L161.7548,1.70815828 L163.635712,1.66046956 C167.047389,1.66046956 166.628931,5.39221906 167.194751,5.39221906 C167.194751,5.39221906 167.478305,5.39050055 167.645001,5.39221906 C167.54232,4.93423553 167.919104,0.67318424 167.919104,0.67318424 C167.919104,0.67318424 167.959919,0.0674086457 166.8953,0.766843158" id="Fill-10"></path>
            <path d="M45.0045295,19.2342773 C42.5801382,19.2342773 40.8624851,18.6349461 40.8624851,16.3450284 L40.8624851,9.44949775 L44.1151994,9.44949775 C45.9204965,9.44949775 45.566483,11.9817257 46.0012666,11.9817257 L46.1894437,11.9817257 L46.1894437,6.24404268 L46.0012666,6.24404268 C45.56992,6.24404268 45.8126599,8.58723422 44.1151994,8.58723422 L40.8624851,8.58723422 L40.8624851,1.39397127 C40.8624851,1.39397127 43.6774083,1.17013504 45.6652975,1.4863413 C47.6050682,1.79567352 47.0800627,5.16653543 48.1305033,5.16653543 L48.2112734,5.16653543 C48.2112734,5.16653543 48.2147105,1.33296408 48.2112734,0.829439971 C48.2168586,0.357278711 47.7799269,0.743943981 47.0972479,0.841039926 C46.7935008,0.977661657 37.4465123,0.934698851 35.4397195,0.829439971 C35.4594824,1.00043194 35.5694672,1.2414533 35.6712891,1.31234193 C35.8177923,1.43091928 37.9740956,0.96348393 37.9740956,3.46864526 L37.9775326,16.9851743 C37.9775326,19.4903356 35.4281196,18.6181906 35.4281196,19.3726175 C35.4281196,19.3726175 35.4255418,19.51998 35.4281196,19.6604683 C36.9760695,19.3610175 47.8765932,19.8009567 48.4849465,19.5444687 C49.0937295,19.2884104 49.8799489,14.8366043 49.8799489,14.8366043 L49.5835055,14.8366043 C48.6409016,14.8366043 48.9102783,19.2342773 45.0045295,19.2342773" id="Fill-12"></path>
            <path d="M32.2321163,16.1868394 L32.2321163,4.11557923 C32.2321163,0.583606783 34.5392191,1.60311422 34.5392191,1.17391576 C34.5392191,1.17391576 34.5508191,0.962538749 34.5392191,0.851694706 C30.8598842,1.04889399 27.0817349,0.851694706 27.0817349,0.851694706 L27.0817349,1.17391576 C27.0817349,1.60311422 29.388408,0.583606783 29.388408,4.20451224 L29.388408,8.5686743 C29.388408,8.5686743 26.3019599,8.63827403 24.9683944,8.63827403 C23.6348288,8.63827403 21.1000231,8.5686743 21.1000231,8.5686743 L21.1000231,4.20451224 C21.1000231,0.583606783 23.4071259,1.60311422 23.4071259,1.17391576 C23.4071259,1.17391576 23.4058371,0.959101723 23.4071259,0.851694706 C19.2204002,1.03858292 15.9230048,0.851694706 15.9230048,0.851694706 L15.9230048,1.17391576 C15.9230048,1.60311422 18.2296779,0.583606783 18.2296779,4.20451224 L18.2296779,16.276202 C18.2296779,19.8971075 15.9230048,18.6434527 15.9230048,19.3407391 L15.9230048,19.6290196 C15.9230048,19.6290196 18.3611441,19.4825164 23.4071259,19.6290196 C23.4075555,19.5422347 23.4036889,19.3368725 23.4036889,19.3368725 C23.4036889,18.6395861 21.1000231,19.8971075 21.1000231,16.276202 L21.1000231,9.43351557 C21.1000231,9.43351557 22.9727719,9.35360477 24.9022316,9.35360477 C26.8316914,9.35360477 29.388408,9.43351557 29.388408,9.43351557 L29.388408,16.276202 C29.388408,19.8971075 27.0817349,18.6460305 27.0817349,19.3428873 L27.0817349,19.6290196 C27.0817349,19.6290196 29.6775477,19.5078644 34.5392191,19.6290196 C34.5413672,19.4769312 34.5392191,19.3428873 34.5392191,19.3428873 C34.5392191,18.6726674 32.2321163,19.8971075 32.2321163,16.1868394" id="Fill-14"></path>
            <path d="M14.5039003,0.766843158 C14.2160494,0.955879515 11.0088758,1.08047166 7.87302049,1.09851604 C4.73888364,1.08047166 1.53686557,0.955449885 1.24944438,0.766843158 C0.184396372,0.0674086457 0.225211039,0.67318424 0.225211039,0.67318424 C0.225211039,0.67318424 0.102767036,4.9338059 8.59256158e-05,5.39178944 C0.16678162,5.39007092 0.450336153,5.39178944 0.450336153,5.39178944 C1.01615634,5.39178944 1.09692641,1.66046956 4.50903262,1.66046956 L6.38994435,1.70815828 L6.39896652,1.70815828 L6.39896652,16.3352758 C6.39896652,19.877989 4.08241194,18.8404372 4.08241194,19.3791908 L4.08241194,19.7027008 C4.08241194,19.7027008 7.88505005,19.3864945 11.6795253,19.7027008 C11.6885475,19.4595313 11.6795253,19.3791908 11.6795253,19.3791908 C11.6795253,18.8404372 9.36340032,19.8762705 9.36340032,16.3352758 L9.36340032,1.70815828 L11.244312,1.66046956 C14.6564182,1.66046956 14.2375309,5.39221906 14.803351,5.39221906 C14.803351,5.39221906 15.0869056,5.39050055 15.2536013,5.39221906 C15.1509201,4.93423553 15.527704,0.67318424 15.527704,0.67318424 C15.527704,0.67318424 15.5685186,0.0674086457 14.5039003,0.766843158" id="Fill-16"></path>
            <path d="M67.7808327,19.2067811 C65.356441,19.2067811 63.6387881,18.6074499 63.6387881,16.3175322 L63.6387881,9.42200154 L66.891932,9.42200154 C68.6967995,9.42200154 68.3432155,11.9542295 68.7775696,11.9542295 L68.9661766,11.9542295 L68.9661766,6.21654647 L68.7775696,6.21654647 C68.3462232,6.21654647 68.5889626,8.55973802 66.891932,8.55973802 L63.6387881,8.55973802 L63.6387881,1.36647507 C63.6387881,1.36647507 66.4541411,1.14220921 68.4416002,1.45884511 C70.3813714,1.76817733 69.8563659,5.13903923 70.9068061,5.13903923 L70.9875762,5.13903923 C70.9875762,5.13903923 70.9914434,1.30546788 70.9875762,0.801943775 C70.9931618,0.329782514 70.5562298,0.716447785 69.8735507,0.81354373 C69.5702332,0.949735832 60.2228153,0.907202655 58.2160226,0.801943775 C58.2357854,0.972935748 58.3457702,1.2139571 58.4475921,1.28484573 C58.5940952,1.40342309 60.7503986,0.935987734 60.7503986,3.44114907 L60.7538356,16.9576781 C60.7538356,19.4628394 58.2044226,18.5906944 58.2044226,19.3451213 C58.2044226,19.3451213 58.2022745,19.4924837 58.2044226,19.6329721 C59.7523726,19.3335213 70.652896,19.7734605 71.2616793,19.5169726 C71.8700323,19.2609142 72.6566816,14.809108 72.6566816,14.809108 L72.3598086,14.809108 C71.4172047,14.809108 71.6865812,19.2067811 67.7808327,19.2067811" id="Fill-18"></path>
            <path d="M98.099987,19.5109577 C94.8833615,19.5109577 91.0918938,16.0442888 91.0918938,9.60244537 C91.0918938,4.29224229 94.0649198,1.09065384 97.2690859,1.09065384 C101.004272,1.09065384 104.559874,4.49545637 104.559874,10.9372998 C104.559874,16.2475028 101.933128,19.5109577 98.099987,19.5109577 M97.954343,0.490893044 C91.8033575,0.490893044 87.9667787,5.80152573 87.9667787,10.5596567 C87.9667787,15.521861 91.512929,20.0488521 97.4323445,20.0488521 C103.612974,20.0488521 107.692293,14.738649 107.692293,9.95044409 C107.692293,5.01788412 103.903403,0.490893044 97.954343,0.490893044" id="Fill-20"></path>
            <path d="M122.759092,19.2409365 C122.759092,19.2409365 123.99771,18.6961681 125.084669,18.3911322 C125.478638,17.1108405 125.489378,14.563146 125.489378,14.563146 L125.192935,14.563146 C124.034658,14.563146 125.462312,19.2800326 119.347845,19.3070992 C115.198068,19.3302991 112.845854,16.4380429 112.252967,12.5413162 C112.116775,11.7082674 112.097012,10.821515 112.101738,9.87977027 C112.128375,5.03098777 114.5257,1.12266114 119.347845,1.14929808 C125.462312,1.17636464 124.034658,5.89325133 125.192935,5.89325133 L125.489378,5.89325133 C125.489378,5.89325133 125.409038,3.54318573 125.489378,2.41798979 C125.569719,1.29279386 125.469186,1.00838007 124.438938,1.36754914 C123.067135,1.85431775 122.19542,0.48165604 119.563089,0.451582074 C112.317411,0.369093483 108.788446,5.94695484 108.788446,10.0950139 C108.788446,10.183947 108.791454,10.2703022 108.793172,10.3579463 L108.788446,10.3613834 C108.788446,10.5749085 108.81852,10.7923003 108.81852,11.0135588 C108.81852,15.6629939 113.382889,20.0752743 119.563089,20.0048153 C121.059054,19.9880598 121.985761,19.5378095 122.759092,19.2409365 Z" id="Fill-22"></path>
            <path d="M82.0563851,12.1634583 C81.0102413,12.5028645 79.0739075,12.3185541 78.8105452,12.1226437 C78.6464271,12.0001996 78.6021755,11.3832537 78.5918644,10.9355813 L78.5918644,1.33554185 C78.5918644,1.33554185 79.364336,1.24403107 80.2261698,1.27410503 C83.236144,1.29515681 84.4743322,3.55585976 84.5168655,6.23158342 C84.5731467,9.76011887 83.3852248,11.6547787 82.0563851,12.1634583 M87.323196,5.87542176 C87.5328544,2.56255964 85.3812772,1.43478593 84.0696223,1.08764645 C83.9278455,1.04940955 83.7899347,1.01675781 83.6571798,0.990120872 C83.1858776,0.923098889 82.1603554,0.841469556 79.9563636,0.835884393 C76.0205406,0.840610302 74.0842069,0.8788472 73.1970246,0.83803253 C73.215069,1.01418004 73.2584617,1.15638694 73.2584617,1.15638694 C73.5643566,1.82574748 75.5922013,0.55877428 75.601653,3.64350389 L75.6287198,16.8515599 C75.62829,19.6209426 73.2704913,18.8368713 73.2584617,19.3043066 L73.2584617,19.6329721 C73.2584617,19.6329721 76.7234122,19.4546765 80.9084191,19.6329721 C80.9084191,19.5242762 80.9092787,19.3043066 80.9092787,19.3043066 C80.9092787,18.9077599 78.5918644,19.6248092 78.5918644,16.8515599 L78.5918644,13.0987587 C83.1729885,13.6336456 87.0035525,10.9338628 87.323196,5.87542176" id="Fill-24"></path>
            <path d="M142.563657,16.1868394 L142.563657,4.11557923 C142.563657,0.583606783 144.87076,1.60311422 144.87076,1.17391576 C144.87076,1.17391576 144.88236,0.962538749 144.87076,0.851694706 C141.191425,1.04889399 137.413276,0.851694706 137.413276,0.851694706 L137.413276,1.17391576 C137.413276,1.60311422 139.719949,0.583606783 139.719949,4.20451224 L139.719949,8.5686743 C139.719949,8.5686743 136.633501,8.63827403 135.299936,8.63827403 C133.96637,8.63827403 131.431564,8.5686743 131.431564,8.5686743 L131.431564,4.20451224 C131.431564,0.583606783 133.738667,1.60311422 133.738667,1.17391576 C133.738667,1.17391576 133.737378,0.959101723 133.738667,0.851694706 C129.551942,1.03858292 126.254546,0.851694706 126.254546,0.851694706 L126.254546,1.17391576 C126.254546,1.60311422 128.561219,0.583606783 128.561219,4.20451224 L128.561219,16.276202 C128.561219,19.8971075 126.254546,18.6434527 126.254546,19.3407391 L126.254546,19.6290196 C126.254546,19.6290196 128.692685,19.4825164 133.738667,19.6290196 C133.739097,19.5422347 133.73523,19.3368725 133.73523,19.3368725 C133.73523,18.6395861 131.431564,19.8971075 131.431564,16.276202 L131.431564,9.43351557 C131.431564,9.43351557 133.304313,9.35360477 135.233773,9.35360477 C137.163232,9.35360477 139.719949,9.43351557 139.719949,9.43351557 L139.719949,16.276202 C139.719949,19.8971075 137.413276,18.6460305 137.413276,19.3428873 L137.413276,19.6290196 C137.413276,19.6290196 140.009089,19.5078644 144.87076,19.6290196 C144.872908,19.4769312 144.87076,19.3428873 144.87076,19.3428873 C144.87076,18.6726674 142.563657,19.8971075 142.563657,16.1868394" id="Fill-26"></path>
        </g>
    </g>
</svg>